<svg width="393" height="410" viewBox="0 0 393 410" fill="none" xmlns="http://www.w3.org/2000/svg">
<path d="M331.068 213.121H62.5264V326.245H331.068V213.121Z" fill="#38BFF2" stroke="#263238" stroke-linecap="round" stroke-linejoin="round"/>
<path d="M93.4004 219.968H68.1377V233.953H93.4004V219.968Z" fill="white" stroke="#263238" stroke-miterlimit="10"/>
<path d="M324.851 288.157H285.06V302.142H324.851V288.157Z" fill="white" stroke="#263238" stroke-miterlimit="10"/>
<path d="M324.863 237.435H300.299V251.419H324.863V237.435Z" fill="white" stroke="#263238" stroke-miterlimit="10"/>
<path d="M93.4004 270.912H68.1377V284.897H93.4004V270.912Z" fill="white" stroke="#263238" stroke-miterlimit="10"/>
<path d="M88.5924 254.063H68.1377V268.047H88.5924V254.063Z" fill="white" stroke="#263238" stroke-miterlimit="10"/>
<path d="M82.1195 237.016H68.1377V251H82.1195V237.016Z" fill="white" stroke="#263238" stroke-miterlimit="10"/>
<path d="M99.9779 237.016H85.9961V251H99.9779V237.016Z" fill="white" stroke="#263238" stroke-miterlimit="10"/>
<path d="M117.825 237.016H103.843V251H117.825V237.016Z" fill="white" stroke="#263238" stroke-miterlimit="10"/>
<path d="M135.672 237.016H121.69V251H135.672V237.016Z" fill="white" stroke="#263238" stroke-miterlimit="10"/>
<path d="M153.531 237.016H139.549V251H153.531V237.016Z" fill="white" stroke="#263238" stroke-miterlimit="10"/>
<path d="M171.377 237.016H157.396V251H171.377V237.016Z" fill="white" stroke="#263238" stroke-miterlimit="10"/>
<path d="M189.224 237.016H175.242V251H189.224V237.016Z" fill="white" stroke="#263238" stroke-miterlimit="10"/>
<path d="M207.083 237.016H193.101V251H207.083V237.016Z" fill="white" stroke="#263238" stroke-miterlimit="10"/>
<path d="M224.93 237.016H210.948V251H224.93V237.016Z" fill="white" stroke="#263238" stroke-miterlimit="10"/>
<path d="M242.788 237.016H228.807V251H242.788V237.016Z" fill="white" stroke="#263238" stroke-miterlimit="10"/>
<path d="M260.635 237.016H246.653V251H260.635V237.016Z" fill="white" stroke="#263238" stroke-miterlimit="10"/>
<path d="M278.482 237.016H264.5V251H278.482V237.016Z" fill="white" stroke="#263238" stroke-miterlimit="10"/>
<path d="M296.34 237.016H282.358V251H296.34V237.016Z" fill="white" stroke="#263238" stroke-miterlimit="10"/>
<path d="M82.1195 305.402H68.1377V319.387H82.1195V305.402Z" fill="white" stroke="#263238" stroke-miterlimit="10"/>
<path d="M99.9779 305.402H85.9961V319.387H99.9779V305.402Z" fill="white" stroke="#263238" stroke-miterlimit="10"/>
<path d="M117.825 305.402H103.843V319.387H117.825V305.402Z" fill="white" stroke="#263238" stroke-miterlimit="10"/>
<path d="M138.757 305.402H121.69V319.387H138.757V305.402Z" fill="white" stroke="#263238" stroke-miterlimit="10"/>
<path d="M228.015 305.402H142.622V319.387H228.015V305.402Z" fill="white" stroke="#263238" stroke-miterlimit="10"/>
<path d="M288.552 305.402H274.57V319.387H288.552V305.402Z" fill="white" stroke="#263238" stroke-miterlimit="10"/>
<path d="M306.434 305.402H292.452V319.387H306.434V305.402Z" fill="white" stroke="#263238" stroke-miterlimit="10"/>
<path d="M253.219 305.402H231.507V319.387H253.219V305.402Z" fill="white" stroke="#263238" stroke-miterlimit="10"/>
<path d="M324.851 305.402H310.87V319.387H324.851V305.402Z" fill="white" stroke="#263238" stroke-miterlimit="10"/>
<path d="M106.544 254.063H92.562V268.047H106.544V254.063Z" fill="white" stroke="#263238" stroke-miterlimit="10"/>
<path d="M124.391 254.063H110.409V268.047H124.391V254.063Z" fill="white" stroke="#263238" stroke-miterlimit="10"/>
<path d="M142.249 254.063H128.268V268.047H142.249V254.063Z" fill="white" stroke="#263238" stroke-miterlimit="10"/>
<path d="M160.096 254.063H146.114V268.047H160.096V254.063Z" fill="white" stroke="#263238" stroke-miterlimit="10"/>
<path d="M177.955 254.063H163.974V268.047H177.955V254.063Z" fill="white" stroke="#263238" stroke-miterlimit="10"/>
<path d="M195.802 254.063H181.82V268.047H195.802V254.063Z" fill="white" stroke="#263238" stroke-miterlimit="10"/>
<path d="M213.649 254.063H199.667V268.047H213.649V254.063Z" fill="white" stroke="#263238" stroke-miterlimit="10"/>
<path d="M231.507 254.063H217.525V268.047H231.507V254.063Z" fill="white" stroke="#263238" stroke-miterlimit="10"/>
<path d="M249.354 254.063H235.372V268.047H249.354V254.063Z" fill="white" stroke="#263238" stroke-miterlimit="10"/>
<path d="M267.202 254.063H253.22V268.047H267.202V254.063Z" fill="white" stroke="#263238" stroke-miterlimit="10"/>
<path d="M285.06 254.063H271.078V268.047H285.06V254.063Z" fill="white" stroke="#263238" stroke-miterlimit="10"/>
<path d="M302.907 254.063H288.925V268.047H302.907V254.063Z" fill="white" stroke="#263238" stroke-miterlimit="10"/>
<path d="M324.851 254.063V285.106H310.869V268.047H306.771V254.063H324.851Z" fill="white" stroke="#263238" stroke-miterlimit="10"/>
<path d="M110.642 271.11H96.6602V285.095H110.642V271.11Z" fill="white" stroke="#263238" stroke-miterlimit="10"/>
<path d="M128.489 271.11H114.507V285.095H128.489V271.11Z" fill="white" stroke="#263238" stroke-miterlimit="10"/>
<path d="M146.336 271.11H132.354V285.095H146.336V271.11Z" fill="white" stroke="#263238" stroke-miterlimit="10"/>
<path d="M164.195 271.11H150.213V285.095H164.195V271.11Z" fill="white" stroke="#263238" stroke-miterlimit="10"/>
<path d="M182.041 271.11H168.06V285.095H182.041V271.11Z" fill="white" stroke="#263238" stroke-miterlimit="10"/>
<path d="M199.9 271.11H185.918V285.095H199.9V271.11Z" fill="white" stroke="#263238" stroke-miterlimit="10"/>
<path d="M217.746 271.11H203.765V285.095H217.746V271.11Z" fill="white" stroke="#263238" stroke-miterlimit="10"/>
<path d="M235.594 271.11H221.612V285.095H235.594V271.11Z" fill="white" stroke="#263238" stroke-miterlimit="10"/>
<path d="M253.453 271.11H239.471V285.095H253.453V271.11Z" fill="white" stroke="#263238" stroke-miterlimit="10"/>
<path d="M271.299 271.11H257.317V285.095H271.299V271.11Z" fill="white" stroke="#263238" stroke-miterlimit="10"/>
<path d="M289.146 271.11H275.164V285.095H289.146V271.11Z" fill="white" stroke="#263238" stroke-miterlimit="10"/>
<path d="M307.004 271.11H293.022V285.095H307.004V271.11Z" fill="white" stroke="#263238" stroke-miterlimit="10"/>
<path d="M103.052 288.157H89.0698V302.142H103.052V288.157Z" fill="white" stroke="#263238" stroke-miterlimit="10"/>
<path d="M120.898 288.157H106.917V302.142H120.898V288.157Z" fill="white" stroke="#263238" stroke-miterlimit="10"/>
<path d="M138.757 288.157H124.775V302.142H138.757V288.157Z" fill="white" stroke="#263238" stroke-miterlimit="10"/>
<path d="M156.604 288.157H142.622V302.142H156.604V288.157Z" fill="white" stroke="#263238" stroke-miterlimit="10"/>
<path d="M174.462 288.157H160.48V302.142H174.462V288.157Z" fill="white" stroke="#263238" stroke-miterlimit="10"/>
<path d="M192.309 288.157H178.327V302.142H192.309V288.157Z" fill="white" stroke="#263238" stroke-miterlimit="10"/>
<path d="M210.157 288.157H196.175V302.142H210.157V288.157Z" fill="white" stroke="#263238" stroke-miterlimit="10"/>
<path d="M228.015 288.157H214.033V302.142H228.015V288.157Z" fill="white" stroke="#263238" stroke-miterlimit="10"/>
<path d="M245.862 288.157H231.88V302.142H245.862V288.157Z" fill="white" stroke="#263238" stroke-miterlimit="10"/>
<path d="M263.708 288.157H249.727V302.142H263.708V288.157Z" fill="white" stroke="#263238" stroke-miterlimit="10"/>
<path d="M281.567 288.157H267.585V302.142H281.567V288.157Z" fill="white" stroke="#263238" stroke-miterlimit="10"/>
<path d="M110.642 220.807H96.6602V234.791H110.642V220.807Z" fill="white" stroke="#263238" stroke-miterlimit="10"/>
<path d="M128.489 220.807H114.507V234.791H128.489V220.807Z" fill="white" stroke="#263238" stroke-miterlimit="10"/>
<path d="M146.336 220.807H132.354V234.791H146.336V220.807Z" fill="white" stroke="#263238" stroke-miterlimit="10"/>
<path d="M164.195 220.807H150.213V234.791H164.195V220.807Z" fill="white" stroke="#263238" stroke-miterlimit="10"/>
<path d="M182.041 220.807H168.06V234.791H182.041V220.807Z" fill="white" stroke="#263238" stroke-miterlimit="10"/>
<path d="M199.9 220.807H185.918V234.791H199.9V220.807Z" fill="white" stroke="#263238" stroke-miterlimit="10"/>
<path d="M217.746 220.807H203.765V234.791H217.746V220.807Z" fill="white" stroke="#263238" stroke-miterlimit="10"/>
<path d="M235.594 220.807H221.612V234.791H235.594V220.807Z" fill="white" stroke="#263238" stroke-miterlimit="10"/>
<path d="M253.453 220.807H239.471V234.791H253.453V220.807Z" fill="white" stroke="#263238" stroke-miterlimit="10"/>
<path d="M271.299 220.807H257.317V234.791H271.299V220.807Z" fill="white" stroke="#263238" stroke-miterlimit="10"/>
<path d="M289.146 220.807H275.164V234.791H289.146V220.807Z" fill="white" stroke="#263238" stroke-miterlimit="10"/>
<path d="M307.004 220.807H293.022V234.791H307.004V220.807Z" fill="white" stroke="#263238" stroke-miterlimit="10"/>
<path d="M324.851 220.807H310.87V234.791H324.851V220.807Z" fill="white" stroke="#263238" stroke-miterlimit="10"/>
<path d="M85.0765 288.157H68.1377V302.142H85.0765V288.157Z" fill="white" stroke="#263238" stroke-miterlimit="10"/>
<path d="M62.5264 213.843L68.1377 211.969H327.424L331.115 213.82L62.5264 213.843Z" fill="#263238"/>
<path d="M297.68 347.869L297.819 296.39C298.378 294.317 298.832 286.678 300.02 281.357C302.045 272.437 294.082 261.678 293.523 261.329C291.288 259.931 286.538 259.955 286.538 259.955C286.538 259.955 281.882 254.645 277.725 252.968C274.869 251.954 271.825 251.576 268.808 251.862C265.608 249.219 262.039 247.057 258.214 245.446C256.717 244.88 255.093 244.737 253.52 245.033C251.947 245.328 250.486 246.052 249.296 247.123L244.057 255.274C243.292 256.43 242.945 257.814 243.074 259.195C243.203 260.576 243.801 261.871 244.768 262.866C247.259 265.311 250.449 264.17 252.055 264.17C254.279 264.17 255.117 261.655 255.117 261.655C255.117 261.655 255.664 274.754 255.117 276.431C254.547 278.096 250.379 281.997 250.379 281.997L236.409 263.564C231.613 257.056 227.416 250.126 223.87 242.861C223.466 241.975 222.937 241.151 222.299 240.416C219.854 237.656 214.627 236.841 213.265 241.964C212.93 243.603 213.006 245.299 213.486 246.901C219.307 264.112 226.734 277.118 233.498 290.672C237.515 298.718 236.025 298.625 238.027 302.258C237.794 302.421 237.91 302.724 237.654 302.875C236.676 306.788 235.99 310.712 235 314.624C234.18 309.713 232.679 304.939 230.541 300.442C231.106 297.717 231.313 294.93 231.158 292.151C230.983 289.343 229.732 286.711 227.666 284.803C226.508 283.867 225.088 283.314 223.603 283.22C222.539 283.15 221.488 283.484 220.659 284.156C219.83 284.827 219.285 285.786 219.132 286.841C218.9 288.971 218.511 291.08 217.968 293.152C217.078 295.858 216.004 298.5 214.755 301.059C214.755 306.264 217.968 305.414 220.308 326.304C222.124 342.606 243.079 353.33 254.488 365.079L268 405C285 397 292 393 306.5 382L297.68 347.869Z" fill="white"/>
<path d="M227.956 319.69C228.096 319.434 228.212 319.177 228.329 318.91C228.205 318.997 228.106 319.114 228.04 319.251C227.975 319.388 227.946 319.539 227.956 319.69Z" fill="#92E3A9"/>
<path d="M261.519 247.658C259.922 246.409 258.022 245.606 256.013 245.33L261.519 247.658Z" fill="#92E3A9"/>
<path d="M255.314 253.108L255.384 253.69C255.425 253.494 255.401 253.289 255.314 253.108Z" fill="#92E3A9"/>
<g opacity="0.5">
<path opacity="0.5" d="M227.956 319.69C228.096 319.434 228.212 319.177 228.329 318.91C228.205 318.997 228.106 319.114 228.04 319.251C227.975 319.388 227.946 319.539 227.956 319.69Z" fill="white"/>
<path opacity="0.5" d="M261.519 247.658C259.922 246.409 258.022 245.606 256.013 245.33L261.519 247.658Z" fill="white"/>
<path opacity="0.5" d="M255.314 253.108L255.384 253.69C255.425 253.494 255.4 253.289 255.314 253.108Z" fill="white"/>
<path opacity="0.5" d="M261.729 303.609C261.205 302.305 258.667 298.555 257.188 301.152L261.729 303.609Z" fill="white"/>
</g>
<path d="M218.445 297.344C217.092 298.411 215.937 299.708 215.034 301.175L218.445 297.344Z" fill="white"/>
<path d="M268 405L254.605 365.044C243.196 353.295 222.24 342.547 220.424 326.269C218.096 305.379 214.871 306.229 214.871 301.024C216.121 298.465 217.194 295.823 218.084 293.118C218.627 291.045 219.016 288.936 219.248 286.806C219.401 285.751 219.947 284.792 220.775 284.121C221.604 283.449 222.655 283.115 223.719 283.185C225.205 283.279 226.624 283.832 227.782 284.769C229.849 286.677 231.1 289.308 231.274 292.116C231.429 294.895 231.222 297.682 230.657 300.407C232.796 304.904 234.296 309.678 235.116 314.59C236.106 310.677 236.793 306.753 237.771 302.84C238.027 302.689 237.91 302.386 238.143 302.223C236.141 298.59 237.631 298.73 233.614 290.637C226.851 277.083 219.435 264.077 213.602 246.867C213.122 245.264 213.046 243.568 213.381 241.929C214.743 236.806 219.97 237.621 222.415 240.381C223.053 241.116 223.582 241.94 223.987 242.826C227.533 250.092 231.729 257.021 236.525 263.529L250.495 281.962C250.495 281.962 254.663 278.061 255.233 276.396C255.78 274.72 255.233 261.62 255.233 261.62C255.233 261.62 254.395 264.135 252.172 264.135C250.565 264.135 247.375 265.299 244.884 262.831C243.908 261.853 243.294 260.571 243.143 259.197C242.993 257.824 243.315 256.44 244.057 255.274L249.261 247.123C250.45 246.052 251.912 245.328 253.485 245.033C255.058 244.737 256.682 244.88 258.179 245.446C262.004 247.057 265.573 249.219 268.773 251.862C271.79 251.576 274.834 251.954 277.69 252.968C281.881 254.657 286.503 259.955 286.503 259.955C286.503 259.955 291.241 259.955 293.488 261.329C294.047 261.678 302.01 272.437 299.984 281.357C298.82 286.678 298.343 294.317 297.784 296.39L297.644 347.869L307 382" stroke="#263238" stroke-miterlimit="10"/>
<path d="M270.088 253.678C272.138 261.273 273.203 269.1 273.255 276.967C273.189 278.285 273.33 279.605 273.674 280.879C273.855 281.513 274.194 282.09 274.661 282.554C275.128 283.019 275.706 283.356 276.34 283.534" stroke="#263238" stroke-miterlimit="10"/>
<path d="M286.55 261.329C290.043 268.618 286.469 284.897 286.725 286.049C286.835 286.629 287.067 287.178 287.406 287.66C287.746 288.142 288.184 288.546 288.692 288.844" stroke="#263238" stroke-miterlimit="10"/>
<path d="M256.537 252.677C256.13 255.006 255.792 257.684 255.373 260.001C254.018 258.835 252.909 257.411 252.109 255.811C251.31 254.212 250.836 252.47 250.716 250.686" stroke="#263238" stroke-miterlimit="10"/>
<path d="M234.231 314.811L231.717 315.917" stroke="#263238" stroke-miterlimit="10"/>
<path d="M234.872 316.825C234.47 318.769 234.47 320.774 234.872 322.717" stroke="#263238" stroke-miterlimit="10"/>
<path d="M249.587 295.062L252.369 300.081" stroke="#263238" stroke-miterlimit="10"/>
<path d="M254.942 276.699L257.713 272.787" stroke="#263238" stroke-miterlimit="10"/>
<path d="M293.908 295.062L293.069 298.136" stroke="#263238" stroke-miterlimit="10"/>
<path d="M287.132 286.713C287.908 284.105 288.727 281.497 289.588 278.888" stroke="#263238" stroke-miterlimit="10"/>
<path d="M295.281 272.798C296.018 272.412 296.878 272.334 297.672 272.581C298.466 272.827 299.13 273.379 299.519 274.114" stroke="#263238" stroke-miterlimit="10"/>
<path d="M278.599 259.431C279.565 259.159 280.583 259.134 281.561 259.358C282.54 259.582 283.446 260.047 284.198 260.712" stroke="#263238" stroke-miterlimit="10"/>
<path d="M226.746 267.197C227.649 266.207 228.774 265.443 230.028 264.97C231.282 264.496 232.631 264.326 233.964 264.473" stroke="#263238" stroke-miterlimit="10"/>
<path d="M216.233 245.236C217.065 244.636 218.008 244.206 219.007 243.97C220.005 243.734 221.041 243.698 222.054 243.862" stroke="#263238" stroke-miterlimit="10"/>
<path d="M218.445 297.344C217.092 298.411 215.937 299.708 215.034 301.175" stroke="#263238" stroke-miterlimit="10"/>
<path d="M219.517 292.046C221.356 290.742 224.29 293.676 225.978 292.174C226.277 291.837 226.486 291.43 226.586 290.99C226.685 290.55 226.673 290.093 226.548 289.659C226.3 288.793 226.186 287.894 226.211 286.993" stroke="#263238" stroke-miterlimit="10"/>
<path d="M271.427 283.977C273.667 288.628 274.123 293.94 272.707 298.905" stroke="#263238" stroke-miterlimit="10"/>
<path d="M284.955 291.161C285.317 293.363 284.906 295.622 283.791 297.554" stroke="#263238" stroke-miterlimit="10"/>
<path d="M167.949 290.507C167.448 288.178 164.177 288.539 164.177 288.539C153.175 289.18 151.697 306.425 151.697 306.425L147.75 318.244L146.586 300.475L146.702 277.571C146.702 277.571 150.032 255.656 148.553 252.221C148.216 251.274 147.601 250.45 146.789 249.856C145.978 249.262 145.006 248.926 144.001 248.891C137.598 247.284 137.226 256.518 137.226 256.518L131.824 275.358L129.542 295.677L127.703 294.688C127.703 294.688 126.83 273.134 127.202 272.773C127.575 272.412 129.787 257.868 129.787 257.868C129.787 257.868 130.951 255.167 132.499 251.72C132.937 250.752 133.163 249.703 133.163 248.64C133.163 247.578 132.937 246.528 132.499 245.56C129.903 240.262 124.501 242.731 123.384 245.56C122.072 248.434 120.595 251.23 118.96 253.933L112.79 270.805C113.022 274.625 110.834 293.453 110.834 293.453L108.61 292.452L105.036 281.39L107.76 270.06C107.76 270.06 113.709 263.539 112.673 259.697C111.637 255.854 106.643 256.995 106.643 256.995L96.561 269.047H93.5923L86.6072 277.92C83.4364 287.436 82.8696 297.628 84.9657 307.438L86.5723 314.925V363.33C86.5723 363.33 81.7875 371.086 81.7875 371.819C81.7875 372.157 77.2591 380.373 74.5 388C86.5222 395.861 99.5 402.5 115 409C119.412 396.576 126.934 379.598 129.787 376.5C135.445 370.34 146.528 358.521 146.528 358.521C146.528 358.521 159.112 338.295 160.591 331.565C161.755 326.046 164.759 316.032 165.783 312.596C166.021 311.816 166.116 311 166.063 310.186C165.981 308.37 165.807 304.841 165.807 301.732C165.807 297.238 168.426 292.801 167.949 290.507Z" fill="white"/>
<path d="M74.5 388C78 380 82.911 368.84 82.911 368.502C82.911 367.769 87.6958 360.014 87.6958 360.014V311.62L86.0892 304.18C83.9945 294.395 84.5491 284.229 87.6958 274.731L94.6808 265.858H97.6495L107.731 253.807C107.731 253.807 112.784 252.642 113.762 256.508C114.74 260.374 108.849 266.848 108.849 266.848L106.125 278.178L109.699 289.24L111.922 290.241C111.922 290.241 114.111 271.413 113.878 267.593L120.048 250.721C121.683 248.018 123.16 245.222 124.472 242.349C125.636 239.519 130.992 237.05 133.588 242.349C134.025 243.316 134.252 244.366 134.252 245.428C134.252 246.491 134.025 247.541 133.588 248.508C132.098 252.002 130.875 254.657 130.875 254.657C130.875 254.657 128.663 269.189 128.291 269.561C127.918 269.934 128.791 291.476 128.791 291.476L130.631 292.465L132.854 272.146L138.256 253.306C138.256 253.306 138.629 244.072 145.032 245.679C146.037 245.714 147.008 246.05 147.82 246.644C148.631 247.238 149.246 248.062 149.584 249.009C151.062 252.444 147.733 274.359 147.733 274.359L147.616 297.263L148.78 315.032L152.727 303.213C152.727 303.213 154.205 285.968 165.207 285.328C165.207 285.328 168.478 284.99 168.979 287.295C169.48 289.601 166.837 294.026 166.837 298.462C166.837 301.571 167.011 305.099 167.093 306.916C167.146 307.73 167.051 308.546 166.814 309.326C165.789 312.761 162.844 322.775 161.621 328.295C160.143 335.025 147.558 355.251 147.558 355.251C147.558 355.251 136.475 367.07 130.817 373.23C127.965 376.327 119.412 396.576 115 409" stroke="#263238" stroke-miterlimit="10"/>
<path d="M111.76 292.023C112.069 293.18 112.078 294.396 111.787 295.557C111.496 296.719 110.913 297.787 110.095 298.66" fill="white"/>
<path d="M111.76 292.023C112.069 293.18 112.078 294.396 111.787 295.557C111.496 296.719 110.913 297.787 110.095 298.66" stroke="#263238" stroke-miterlimit="10"/>
<path d="M92.9814 308.302C94.5764 305.821 96.1364 302.421 95.7056 299.51C94.8674 293.793 92.2131 287.214 93.4355 281.555C94.1806 277.945 94.9373 274.324 95.6823 270.714" fill="white"/>
<path d="M92.9814 308.302C94.5764 305.821 96.1364 302.421 95.7056 299.51C94.8674 293.793 92.2131 287.214 93.4355 281.555C94.1806 277.945 94.9373 274.324 95.6823 270.714" stroke="#263238" stroke-miterlimit="10"/>
<path d="M139.397 254.296C141.305 253.793 143.31 253.793 145.218 254.296C145.218 253.76 145.218 253.224 145.218 252.677" stroke="#263238" stroke-miterlimit="10"/>
<path d="M124.146 247.018C124.707 247.405 125.364 247.63 126.044 247.668C126.725 247.707 127.402 247.557 128.003 247.236C128.604 246.915 129.106 246.435 129.452 245.848C129.798 245.261 129.977 244.59 129.967 243.909" stroke="#263238" stroke-miterlimit="10"/>
<path d="M166.185 287.447C164.576 287.861 163.161 288.824 162.186 290.169C161.21 291.515 160.735 293.159 160.841 294.818L163.694 295.668" stroke="#263238" stroke-miterlimit="10"/>
<path d="M128.722 288.867C128.85 290.824 128.605 295.493 128.722 297.438V288.867Z" fill="white"/>
<path d="M128.722 288.867C128.85 290.824 128.605 295.493 128.722 297.438" stroke="#263238" stroke-miterlimit="10"/>
<path d="M130.863 291.569C130.631 294.775 130.394 297.977 130.153 301.175C130.153 300.768 130.153 300.36 130.153 299.953" fill="white"/>
<path d="M130.863 291.569C130.631 294.775 130.394 297.977 130.153 301.175C130.153 300.768 130.153 300.36 130.153 299.953" stroke="#263238" stroke-miterlimit="10"/>
<path d="M148.594 318.56C149.439 322.099 149.053 325.82 147.5 329.11L148.594 318.56Z" fill="white"/>
<path d="M148.594 318.56C149.439 322.099 149.053 325.82 147.5 329.11" stroke="#263238" stroke-miterlimit="10"/>
<path d="M119.117 301.781C116.58 304.564 116.952 311.236 118.745 314.916" stroke="#263238" stroke-miterlimit="10"/>
<path d="M137.872 306.369C137.887 309.497 136.784 312.528 134.764 314.916" stroke="#263238" stroke-miterlimit="10"/>
<path d="M100.631 303.108C100.209 305.946 100.825 308.84 102.365 311.259" stroke="#263238" stroke-miterlimit="10"/>
<path d="M89.826 311.807C89.7147 314.021 90.3457 316.209 91.6189 318.025" stroke="#263238" stroke-miterlimit="10"/>
<path d="M104.634 258.115C105.303 257.81 106.047 257.71 106.772 257.828C107.498 257.946 108.172 258.277 108.709 258.779L110.176 256.869" stroke="#263238" stroke-miterlimit="10"/>
<path d="M116.579 266.673C117.561 266.085 118.721 265.865 119.849 266.055C120.978 266.245 122.003 266.832 122.738 267.71" stroke="#263238" stroke-miterlimit="10"/>
<path d="M135.229 272.495C136.276 272.029 137.412 271.799 138.557 271.823C139.702 271.847 140.828 272.125 141.854 272.635" stroke="#263238" stroke-miterlimit="10"/>
<path d="M93.7261 282.265C94.3458 281.229 95.2503 280.392 96.3319 279.855C97.4134 279.319 98.6264 279.104 99.8264 279.237" stroke="#263238" stroke-miterlimit="10"/>
<path d="M85.915 293.397C85.9526 292.643 86.2468 291.925 86.7486 291.362C87.2505 290.798 87.9299 290.424 88.6741 290.3" stroke="#263238" stroke-miterlimit="10"/>
<path d="M391.908 14.7266L1.3252 16.5664L7.2276 7.71679C8.62103 5.61149 10.5126 3.88287 12.7344 2.6844C14.9562 1.48592 17.4395 0.854671 19.9638 0.846684H373.363C375.65 0.845036 377.909 1.35682 379.972 2.34431C382.035 3.3318 383.85 4.76982 385.284 6.55237L391.908 14.7266Z" fill="white" stroke="#263238" stroke-linecap="round" stroke-linejoin="round"/>
<path d="M203.404 73.2856H182.006C160.049 73.2856 142.249 91.0891 142.249 113.051V134.453C142.249 156.415 160.049 174.218 182.006 174.218H203.404C225.361 174.218 243.16 156.415 243.16 134.453V113.051C243.16 91.0891 225.361 73.2856 203.404 73.2856Z" fill="#757575" stroke="#263238" stroke-linecap="round" stroke-linejoin="round"/>
<path d="M160.585 132.287V146.633C160.585 148.795 161.444 150.868 162.972 152.396C164.5 153.925 166.573 154.784 168.734 154.784H217.944C220.096 154.784 222.16 153.933 223.686 152.417C225.213 150.901 226.078 148.843 226.094 146.691C226.163 140.228 226.501 132.287 226.501 132.287H160.585Z" fill="#999999" stroke="#263238" stroke-linecap="round" stroke-linejoin="round"/>
<path d="M340.685 137.073H52.8987C51.4186 137.076 49.9717 136.634 48.7466 135.803C47.5215 134.972 46.5749 133.792 46.03 132.415L1.63978 18.4295C1.37044 17.7404 1.27352 16.9959 1.35744 16.2608C1.44135 15.5257 1.70357 14.8223 2.12129 14.2116C2.539 13.601 3.09955 13.1017 3.75417 12.7572C4.4088 12.4126 5.13768 12.2333 5.8774 12.2348H387.729C388.464 12.2427 389.186 12.4289 389.833 12.7774C390.48 13.1259 391.033 13.6263 391.444 14.2355C391.855 14.8448 392.112 15.5447 392.193 16.2752C392.274 17.0057 392.176 17.745 391.909 18.4295L347.518 132.38C346.981 133.758 346.042 134.942 344.824 135.779C343.605 136.615 342.163 137.066 340.685 137.073Z" fill="white" stroke="#263238" stroke-linecap="round" stroke-linejoin="round"/>
<path d="M342.826 127.14H50.0693L9.78857 19.4542H382.921L342.826 127.14Z" fill="white"/>
<path d="M226.163 136.922H160.899V141.393H226.163V136.922Z" fill="#263238"/>
<path d="M300.066 122.529H93.3309C92.1667 122.529 91.1189 122.017 90.9094 121.365L61.5022 27.9196C61.1762 26.8716 62.0959 26.0216 63.5628 26.0216H329.835C331.301 26.0216 332.221 26.8716 331.883 27.9196L302.488 121.365C302.267 122.005 301.196 122.529 300.066 122.529Z" fill="#38BFF2"/>
<path d="M297.994 120.398H95.4262C95.0463 120.401 94.676 120.279 94.3714 120.052C94.0668 119.826 93.8444 119.505 93.7381 119.141L69.8025 40.5885C69.7134 40.3208 69.6896 40.0357 69.733 39.7569C69.7765 39.4782 69.8859 39.2138 70.0522 38.9859C70.2185 38.758 70.4369 38.5732 70.6892 38.4469C70.9414 38.3206 71.2201 38.2564 71.5022 38.2597H321.894C322.177 38.2564 322.455 38.3206 322.708 38.4469C322.96 38.5732 323.178 38.758 323.344 38.9859C323.511 39.2138 323.62 39.4782 323.664 39.7569C323.707 40.0357 323.683 40.3208 323.594 40.5885L299.682 119.141C299.574 119.504 299.351 119.823 299.047 120.05C298.743 120.277 298.373 120.399 297.994 120.398Z" fill="#263238"/>
<path d="M123.552 58.6837H84.7035C83.7373 58.6837 83.1086 59.196 83.2949 59.8481C83.4828 60.2233 83.7778 60.5342 84.1426 60.7415C84.5073 60.9488 84.9254 61.0432 85.3438 61.0125H123.971C124.926 61.0125 125.601 60.5002 125.496 59.8481C125.392 59.196 124.507 58.6837 123.552 58.6837Z" fill="white"/>
<path d="M124.844 65.7751H91.8049C90.862 65.7751 90.2449 66.2758 90.4079 66.9395C90.5858 67.31 90.8705 67.6188 91.2252 67.8263C91.5799 68.0338 91.9886 68.1305 92.3987 68.1039H125.31C126.253 68.1039 126.917 67.6032 126.812 66.9395C126.707 66.2758 125.787 65.7751 124.844 65.7751Z" fill="white"/>
<path opacity="0.5" d="M126.102 72.6219H88.6156C87.6842 72.6219 87.0788 73.0993 87.2418 73.6931C87.4291 74.0487 87.7162 74.3418 88.0678 74.5362C88.4195 74.7307 88.8203 74.8181 89.2209 74.7877H126.475C127.394 74.7877 128.058 74.3103 127.953 73.7164C127.848 73.1226 127.034 72.6219 126.102 72.6219Z" fill="white"/>
<path d="M127.313 79.2358H105.298C104.39 79.2358 103.762 79.7016 103.901 80.2722C104.041 80.8427 104.891 81.3085 105.799 81.3085H127.697C128.605 81.3085 129.257 80.8427 129.152 80.2722C129.048 79.7016 128.233 79.2358 127.313 79.2358Z" fill="white"/>
<path d="M128.489 85.6169H92.2595C91.3747 85.6169 90.7693 86.071 90.9323 86.6183C91.0953 87.1655 91.9335 87.6197 92.8299 87.6197H128.92C129.804 87.6197 130.445 87.1772 130.352 86.6183C130.258 86.0593 129.385 85.6169 128.489 85.6169Z" fill="white"/>
<path d="M129.618 91.8H100.373C99.4885 91.8 98.8948 92.2308 99.0345 92.7664C99.1742 93.3021 100.001 93.7329 100.874 93.7329H129.978C130.852 93.7329 131.48 93.3021 131.387 92.7664C131.294 92.2308 130.502 91.8 129.618 91.8Z" fill="white"/>
<path d="M130.713 97.7735H101.946C101.072 97.7735 100.49 98.1926 100.63 98.705C100.77 99.2173 101.573 99.6482 102.435 99.6482H131.062C131.923 99.6482 132.54 99.229 132.447 98.705C132.354 98.181 131.586 97.7735 130.713 97.7735Z" fill="white"/>
<path d="M131.772 103.549H100.339C99.489 103.549 98.9069 103.957 99.0466 104.457C99.1863 104.958 99.9779 105.366 100.828 105.366H132.063C132.913 105.366 133.53 104.958 133.437 104.457C133.343 103.957 132.633 103.549 131.772 103.549Z" fill="white"/>
<path opacity="0.5" d="M132.808 109.15H112.504C111.666 109.15 111.084 109.546 111.2 110.035C111.317 110.524 112.097 110.908 112.923 110.908H133.099C133.937 110.908 134.542 110.512 134.461 110.035C134.379 109.557 133.646 109.15 132.808 109.15Z" fill="white"/>
<path opacity="0.5" d="M122.202 51.3245H93.2491C92.2712 51.3245 91.6193 51.8602 91.7939 52.489C91.9813 52.8671 92.2779 53.1803 92.6453 53.3879C93.0127 53.5955 93.434 53.688 93.8545 53.6534H122.633C123.611 53.6534 124.298 53.1177 124.181 52.489C124.019 52.1087 123.74 51.7905 123.384 51.5809C123.027 51.3713 122.613 51.2815 122.202 51.3245Z" fill="white"/>
<path d="M120.794 43.6976H80.4897C79.5002 43.6976 78.8483 44.2448 79.0462 44.9318C79.241 45.3265 79.5486 45.6545 79.9299 45.8742C80.3112 46.0939 80.7492 46.1955 81.1883 46.1661H121.259C122.237 46.1661 122.947 45.6189 122.819 44.9318C122.691 44.2448 121.818 43.6976 120.794 43.6976Z" fill="white"/>
<path d="M133.798 114.576H100.397C99.5706 114.576 99.0118 114.96 99.1398 115.426C99.2679 115.892 100.048 116.276 100.874 116.276H134.112C134.927 116.276 135.532 115.892 135.451 115.426C135.369 114.96 134.624 114.576 133.798 114.576Z" fill="white"/>
<path opacity="0.5" d="M137.197 61.2687H144.73L144.357 58.3926H136.767L137.197 61.2687Z" fill="white"/>
<path opacity="0.5" d="M138.245 68.2669H145.649L145.288 65.4956H137.826L138.245 68.2669Z" fill="white"/>
<path opacity="0.5" d="M139.258 75.0322H146.534L146.185 72.354H138.862L139.258 75.0322Z" fill="white"/>
<path opacity="0.5" d="M140.247 81.5647H147.395L147.046 78.968H139.852L140.247 81.5647Z" fill="white"/>
<path opacity="0.5" d="M141.19 87.8642H148.222L147.884 85.3723H140.818L141.19 87.8642Z" fill="white"/>
<path opacity="0.5" d="M142.11 93.9658H149.013L148.699 91.5554H141.737L142.11 93.9658Z" fill="white"/>
<path opacity="0.5" d="M142.995 99.8811H149.794L149.491 97.5289H142.646L142.995 99.8811Z" fill="white"/>
<path opacity="0.5" d="M143.844 105.587H150.538L150.247 103.328H143.506L143.844 105.587Z" fill="white"/>
<path opacity="0.5" d="M144.682 111.129H151.272L150.981 108.929H144.356L144.682 111.129Z" fill="white"/>
<path opacity="0.5" d="M136.103 54.0143H143.775L143.39 51.0218H135.66L136.103 54.0143Z" fill="white"/>
<path opacity="0.5" d="M134.973 46.4805H142.785L142.389 43.3831H134.508L134.973 46.4805Z" fill="white"/>
<path opacity="0.5" d="M145.486 116.486H151.97L151.691 114.355H145.171L145.486 116.486Z" fill="white"/>
<path d="M185.196 104.457C185.196 103.957 185.848 103.549 186.698 103.549H298.25C299.1 103.549 299.682 103.957 299.531 104.457C299.348 104.762 299.082 105.009 298.765 105.17C298.448 105.331 298.092 105.399 297.738 105.366H186.756C185.906 105.366 185.208 104.958 185.196 104.457Z" fill="white"/>
<path d="M299.379 99.6482H237.608C236.746 99.6482 236.094 99.229 236.153 98.705C236.211 98.181 236.956 97.7735 237.829 97.7735H299.938C300.8 97.7735 301.382 98.1926 301.23 98.705C301.047 99.0252 300.774 99.2849 300.445 99.4524C300.117 99.62 299.746 99.688 299.379 99.6482Z" fill="white"/>
<path opacity="0.5" d="M222.95 99.6482H203.741C202.88 99.6482 202.181 99.229 202.193 98.705C202.205 98.181 202.903 97.7735 203.776 97.7735H223.102C223.963 97.7735 224.638 98.1926 224.592 98.705C224.545 99.2173 223.812 99.6482 222.95 99.6482Z" fill="white"/>
<path d="M263.045 93.7329H175.917C175.044 93.7329 174.311 93.3021 174.276 92.7664C174.241 92.2308 174.928 91.8 175.812 91.8H263.405C264.279 91.8 264.919 92.2308 264.814 92.7664C264.709 93.3021 263.929 93.7329 263.045 93.7329Z" fill="white"/>
<path opacity="0.5" d="M157.71 91.8H163.915C164.788 91.8 165.545 92.2308 165.592 92.7664C165.638 93.3021 164.963 93.7329 164.09 93.7329H157.908C157.035 93.7329 156.278 93.3021 156.22 92.7664C156.162 92.2308 156.825 91.8 157.71 91.8Z" fill="white"/>
<path d="M275.653 86.6183C275.537 87.1772 274.722 87.6197 273.825 87.6197H191.727C190.831 87.6197 190.109 87.1772 190.097 86.6183C190.086 86.0593 190.807 85.6169 191.692 85.6169H274.244C275.141 85.6169 275.769 86.071 275.653 86.6183Z" fill="white"/>
<path d="M157.047 85.6169H180.33C181.227 85.6169 181.972 86.071 181.995 86.6183C182.018 87.1655 181.308 87.6197 180.423 87.6197H157.256C156.371 87.6197 155.603 87.1772 155.533 86.6183C155.463 86.0593 156.15 85.6169 157.047 85.6169Z" fill="white"/>
<path d="M156.359 79.2358H245.931C246.839 79.2358 247.515 79.7016 247.433 80.2722C247.352 80.8427 246.56 81.3085 245.652 81.3085H156.58C155.684 81.3085 154.892 80.8427 154.834 80.2722C154.776 79.7016 155.451 79.2358 156.359 79.2358Z" fill="white"/>
<path d="M214.51 74.7877C213.591 74.7877 212.869 74.3103 212.892 73.7164C212.915 73.1226 213.684 72.6452 214.615 72.6452H261.869C262.801 72.6452 263.464 73.1226 263.359 73.7164C263.255 74.3103 262.428 74.7877 261.508 74.7877H214.51Z" fill="white"/>
<path d="M155.661 72.6219H196.558C197.49 72.6219 198.235 73.0993 198.235 73.6931C198.235 74.287 197.49 74.7877 196.558 74.7877H155.893C154.962 74.7877 154.17 74.3103 154.101 73.7164C154.031 73.1226 154.729 72.6219 155.661 72.6219Z" fill="white"/>
<path d="M308.46 67.9991H195.872C194.94 67.9991 194.172 67.4984 194.172 66.8347C194.172 66.1709 194.929 65.6702 195.872 65.6702H309.088C310.031 65.6702 310.648 66.1709 310.474 66.8347C310.289 67.2051 310 67.513 309.642 67.7201C309.284 67.9271 308.873 68.0242 308.46 67.9991Z" fill="white"/>
<path d="M310.416 60.9776H211.46C210.505 60.9776 209.749 60.4653 209.772 59.8132C209.795 59.1611 210.587 58.6488 211.553 58.6488H311.184C312.139 58.6488 312.767 59.1611 312.581 59.8132C312.383 60.2062 312.069 60.5287 311.682 60.737C311.294 60.9454 310.852 61.0294 310.416 60.9776Z" fill="white"/>
<path opacity="0.5" d="M312.557 53.7116H291.789C290.811 53.7116 290.147 53.176 290.298 52.5472C290.48 52.1668 290.774 51.8513 291.14 51.6431C291.506 51.4349 291.928 51.344 292.347 51.3827H313.209C314.187 51.3827 314.828 51.9184 314.63 52.5472C314.433 52.9203 314.133 53.2287 313.765 53.4353C313.398 53.6418 312.978 53.7378 312.557 53.7116Z" fill="white"/>
<path d="M277.294 53.7116H201.122C200.156 53.7116 199.364 53.176 199.376 52.5472C199.387 51.9184 200.167 51.3827 201.145 51.3827H277.818C278.796 51.3827 279.483 51.9184 279.343 52.5472C279.169 52.933 278.876 53.2536 278.508 53.4628C278.14 53.672 277.715 53.7591 277.294 53.7116Z" fill="white"/>
<path d="M159.549 109.15H229.901C230.739 109.15 231.379 109.546 231.321 110.035C231.263 110.524 230.564 110.908 229.726 110.908H159.747C158.909 110.908 158.187 110.512 158.141 110.035C158.094 109.557 158.711 109.15 159.549 109.15Z" fill="white"/>
<path d="M160.131 114.576H268.214C269.029 114.576 269.623 114.96 269.518 115.426C269.413 115.892 268.68 116.276 267.853 116.276H160.318C159.491 116.276 158.781 115.892 158.734 115.426C158.688 114.96 159.305 114.576 160.131 114.576Z" fill="white"/>
<path d="M273.511 46.1661H218.445C217.456 46.1661 216.687 45.6189 216.722 44.9318C216.757 44.2448 217.584 43.6976 218.585 43.6976H273.977C274.978 43.6976 275.677 44.2448 275.548 44.9318C275.384 45.3275 275.098 45.6606 274.732 45.8825C274.365 46.1045 273.938 46.2038 273.511 46.1661Z" fill="white"/>
<path opacity="0.5" d="M202.892 46.1661H152.832C151.842 46.1661 150.981 45.6189 150.899 44.9318C150.818 44.2448 151.563 43.6976 152.564 43.6976H202.915C203.904 43.6976 204.708 44.2448 204.696 44.9318C204.684 45.6189 203.881 46.1661 202.892 46.1661Z" fill="white"/>
<path opacity="0.5" d="M245.501 109.15C246.339 109.15 246.968 109.546 246.898 110.035C246.828 110.524 246.095 110.908 245.256 110.908H239.82C238.993 110.908 238.364 110.512 238.423 110.035C238.481 109.557 239.203 109.15 240.041 109.15H245.501Z" fill="white"/>
<path opacity="0.5" d="M178.782 104.457C178.782 104.958 178.141 105.366 177.291 105.366H169.887C169.037 105.366 168.316 104.958 168.281 104.457C168.246 103.957 168.898 103.549 169.748 103.549H177.187C178.048 103.549 178.758 103.957 178.782 104.457Z" fill="white"/>
<path opacity="0.5" d="M268.132 80.2722C268.028 80.8427 267.213 81.3085 266.305 81.3085H257.643C256.735 81.3085 256.083 80.8427 256.165 80.2722C256.246 79.7016 257.073 79.2358 257.981 79.2358H266.689C267.597 79.2358 268.249 79.7016 268.132 80.2722Z" fill="white"/>
<path opacity="0.5" d="M295.153 85.6169C296.05 85.6169 296.655 86.071 296.504 86.6183C296.324 86.9511 296.051 87.2237 295.718 87.4018C295.384 87.5799 295.006 87.6557 294.629 87.6197H287.726C286.829 87.6197 286.224 87.1772 286.352 86.6183C286.528 86.2853 286.799 86.0123 287.131 85.834C287.463 85.6557 287.84 85.5801 288.215 85.6169H295.153Z" fill="white"/>
<path opacity="0.5" d="M182.239 67.9991C181.308 67.9991 180.528 67.4984 180.493 66.8347C180.458 66.1709 181.215 65.6702 182.158 65.6702H189.504C190.447 65.6702 191.215 66.1709 191.227 66.8347C191.238 67.4984 190.482 67.9991 189.55 67.9991H182.239Z" fill="white"/>
<path d="M82.2357 32.1464C82.399 32.5358 82.4603 32.9604 82.4137 33.3801C82.3671 33.7998 82.2142 34.2007 81.9693 34.5447C81.7245 34.8887 81.3959 35.1645 81.0147 35.3459C80.6334 35.5274 80.2122 35.6084 79.7909 35.5815C78.7737 35.5222 77.7964 35.1649 76.9808 34.5541C76.1652 33.9433 75.5472 33.106 75.204 32.1464C75.0319 31.7561 74.9629 31.3281 75.0035 30.9035C75.0442 30.4788 75.1931 30.0717 75.4362 29.7212C75.6792 29.3706 76.0081 29.0883 76.3914 28.9013C76.7748 28.7143 77.1997 28.6289 77.6255 28.6532C78.6554 28.7063 79.6457 29.0677 80.4677 29.6906C81.2897 30.3135 81.9057 31.1691 82.2357 32.1464Z" fill="white"/>
<path d="M91.6659 32.2047C91.8123 32.6034 91.8567 33.0324 91.7953 33.4527C91.7338 33.873 91.5683 34.2713 91.3139 34.6113C91.0594 34.9514 90.7241 35.2226 90.3383 35.4001C89.9525 35.5777 89.5285 35.656 89.1047 35.6281C88.1005 35.578 87.1351 35.2238 86.3367 34.6124C85.5383 34.001 84.9446 33.1613 84.6343 32.2047C84.4803 31.8041 84.4289 31.3713 84.4848 30.9458C84.5407 30.5203 84.7021 30.1156 84.9544 29.7684C85.2066 29.4212 85.5417 29.1426 85.929 28.958C86.3164 28.7734 86.7437 28.6886 87.1722 28.7114C88.1901 28.7585 89.1685 29.1196 89.9731 29.745C90.7777 30.3705 91.369 31.2297 91.6659 32.2047Z" fill="white"/>
<path d="M101.246 32.1464C101.377 32.5582 101.405 32.9956 101.327 33.4205C101.249 33.8453 101.069 34.2447 100.801 34.5837C100.534 34.9226 100.187 35.1908 99.7917 35.3647C99.3965 35.5387 98.9646 35.6131 98.5339 35.5815C97.5389 35.5361 96.5829 35.1806 95.8001 34.5646C95.0172 33.9486 94.4466 33.103 94.1683 32.1464C94.0311 31.7363 93.9963 31.2988 94.0667 30.8721C94.1371 30.4454 94.3107 30.0424 94.5723 29.6981C94.8339 29.3538 95.1757 29.0786 95.5679 28.8965C95.9601 28.7144 96.3908 28.6308 96.8226 28.6532C97.8373 28.6831 98.8153 29.039 99.6121 29.6681C100.409 30.2972 100.982 31.1662 101.246 32.1464Z" fill="white"/>
</svg>
